<svg xmlns="http://www.w3.org/2000/svg" width="1226" height="337" viewBox="0 0 1226 337"><style>.s0{fill:#2f327c}.s2{fill:#db6235}</style><g id="Background"><path id="Path 0" fill-rule="evenodd" d="M1075.46 8.97c1.12-.02 4.07 1.7 6.54 3.83 2.64 2.27 6.01 6.73 8.17 10.79 2.01 3.8 4.16 9.61 4.78 12.91.77 4.17.81 7.99.12 12.5-.55 3.58-2.41 10.55-4.14 15.5-1.74 4.95-4.07 10.8-5.19 13s-3.88 6.92-6.14 10.49c-2.25 3.57-6.68 9.42-9.83 13-3.16 3.58-5.74 7.07-5.75 7.76s3.02 4.46 6.73 8.39 12.15 11.77 18.75 17.43 15.6 14.4 20 19.41 8.38 10.11 8.85 11.32c.46 1.21.64 5.57.39 9.7-.32 5.29-1.25 9.27-5.88 19.5l-2.03-2.5c-1.11-1.38-3.94-5.65-6.28-9.5s-6.46-10.82-9.15-15.49c-2.7-4.67-7.44-11.2-10.54-14.5-4.04-4.3-8.87-7.85-17-12.47-7.33-4.16-13.66-8.69-17.86-12.76-3.58-3.47-6.72-6.3-7-6.29-.28 0-.36 6.65-.18 14.76.17 8.11-.19 19.93-.8 26.25s-1.54 13.41-2.07 15.75c-.6 2.69-1.5 4.25-2.45 4.25-.83 0-2.25-.79-3.17-1.75s-2.45-3.55-3.41-5.75-2.28-7.37-2.94-11.5c-.81-5.07-1.04-15.44-.71-32 .27-13.47 1.24-34.4 2.16-46.5s1.87-23.8 2.11-26c.31-2.82 2.56-7.25 7.64-15 4.43-6.77 10.49-14.28 15.76-19.53 4.71-4.69 10.79-9.98 13.52-11.75s5.88-3.24 7-3.25m96.04 22.45c.55.14 1.31 2.01 1.69 4.16.38 2.16.74 6.84.78 10.42.07 5.04-.31 6.87-1.69 8.14-.98.9-5.16 3.03-9.28 4.72-4.31 1.78-8.83 4.48-10.63 6.36-1.72 1.81-3.63 4.29-4.25 5.53-.87 1.75-.78 2.92.38 5.25.83 1.65 2.96 3.91 4.75 5.02 1.79 1.1 5.5 2.7 8.25 3.55s8.6 1.92 13 2.38c4.4.47 9.58 1.49 11.5 2.26 1.92.78 5.97 3.26 9 5.51 3.03 2.26 7.57 6.73 10.11 9.94 2.53 3.21 6 8.31 7.71 11.34s4.03 8.2 5.16 11.5c1.34 3.92 2.05 8.52 2.04 13.25-.02 5.52-.6 8.5-2.43 12.5-1.45 3.17-4.53 7.18-7.75 10.12-2.94 2.68-7.93 6.16-11.09 7.75-3.16 1.58-8.79 3.33-12.5 3.89s-13.5 1.3-21.75 1.65-16.69.35-18.75-.01-5.16-1.89-6.89-3.4c-1.72-1.51-3.97-4.44-5-6.5-1.02-2.06-1.86-5.1-1.86-6.75s.56-5.07 1.25-7.61c1.18-4.36 1.41-4.57 4.25-4.1 1.65.28 7.28 1.44 12.5 2.59 6.01 1.33 13.17 2.11 19.5 2.13 7.14.02 11.86-.53 16.5-1.93 4.22-1.27 8.08-3.32 11-5.84 2.47-2.14 5.29-5.76 6.25-8.06 1.37-3.27 1.54-5 .8-7.93-.53-2.06-2.24-5.55-3.81-7.75s-5.08-5.44-7.8-7.19c-2.72-1.76-7.19-3.69-9.94-4.31-2.75-.61-11.86-1.53-20.25-2.05-10.87-.68-16.31-1.45-18.92-2.7-2.02-.96-5.51-3.8-7.75-6.31s-4.64-6.33-5.31-8.5c-.68-2.17-1.25-6.41-1.26-9.44-.02-3.03.7-7.97 1.59-11s2.65-7.52 3.9-10c1.25-2.47 4.46-7.38 7.14-10.91 2.72-3.59 7.71-8.43 11.35-11q6.49-4.59 12-5.75c3.03-.64 5.96-1.05 6.51-.92m-653 174.95c12.87.21 14.47.45 19.75 2.93 3.4 1.6 6.95 4.23 8.69 6.45 1.95 2.49 3.1 5.27 3.39 8.25.25 2.48.2 6.3-.09 8.5-.44 3.28-1.74 5.18-7.14 10.52-3.63 3.59-8.08 7.19-9.89 8s-3.27 1.82-3.25 2.23 1.73.76 3.79.76c2.06.01 6 .6 8.75 1.31s6.78 2.4 8.95 3.74c2.18 1.34 5.23 4.24 6.78 6.44 2.39 3.38 2.82 4.98 2.8 10.25-.02 4.2-.69 7.56-2.03 10.25-1.1 2.2-2.79 4.98-3.75 6.17-.96 1.2-3.33 3.7-5.25 5.57s-5.75 4.84-8.5 6.62c-2.75 1.77-7.7 4.49-11 6.05a589 589 0 0 0-8.5 4.07c-1.38.69-7.45 2.85-13.5 4.8s-14.38 4.26-18.5 5.14c-4.13.88-10.88 2.24-15 3.02-4.13.79-13.58 1.91-21 2.51-9.53.76-15.12.76-19 .02-3.03-.59-6.08-1.6-6.79-2.27-.72-.66-1.27-2.55-1.23-4.2s1.67-6.37 3.63-10.5c1.95-4.12 4.15-8.62 4.88-10 .73-1.37 4.01-8.35 7.28-15.5s6.98-15.25 8.23-18 3.83-8.6 5.72-13c1.9-4.4 4.98-11.71 6.86-16.25s3.42-8.7 3.42-9.25-1.69-3.49-3.75-6.54c-3.29-4.86-3.57-5.7-2.25-6.88.82-.74 6-2.75 11.5-4.47s12.7-3.6 16-4.18 8.25-1.45 11-1.92c2.75-.48 11.3-.76 19-.64m-17 26.22c-2.75.82-7.35 2.26-10.22 3.2l-5.22 1.71c-3.9 12.4-4.93 16.08-4.8 16.17s2.49-.45 5.24-1.2 7.02-2.01 9.5-2.79c2.47-.78 7.65-2.89 11.5-4.67 3.85-1.79 8.46-4.78 10.25-6.63 1.9-1.98 3.25-4.42 3.25-5.88 0-2.3-.34-2.49-4.25-2.35-2.34.08-5.6.33-7.25.55s-5.25 1.07-8 1.89m-4 40.4c-4.4 1.23-9.35 2.6-11 3.04s-5.46 1.62-8.46 2.63c-5.34 1.8-5.51 1.97-7.55 7.84-1.15 3.3-2.79 7.58-3.65 9.5-.85 1.93-2.74 6.54-4.19 10.25-1.46 3.71-2.65 7.2-2.65 7.75 0 .62 2.59.42 6.75-.51 3.71-.82 9.9-2.22 13.75-3.09 3.85-.88 9.25-2.26 12-3.06 2.75-.81 6.8-2.18 9-3.04s6.92-2.97 10.49-4.69c3.57-1.71 6.95-3.42 7.5-3.81.56-.38 2.99-2.41 5.4-4.5 2.42-2.09 5.23-5.71 6.25-8.05 1.03-2.34 1.86-5.37 1.86-6.75 0-1.37-1.01-3.68-2.25-5.12-1.83-2.13-3.27-2.68-7.75-2.93-3.03-.17-8.2.27-11.5.99s-9.6 2.31-14 3.55m250-66.58c10.04.26 15.27.85 18.5 2.07 2.47.94 5.74 2.56 7.25 3.61s3.65 3.71 4.75 5.91c1.27 2.55 2 6 2 9.5 0 3.07-.72 6.94-1.62 8.75-.89 1.79-3.71 5.28-6.27 7.75-2.55 2.48-6.33 5.4-8.38 6.5-2.06 1.1-3.74 2.34-3.74 2.75.01.41 2.37.91 5.26 1.11s7.95 1.4 11.25 2.66c3.3 1.27 7.46 3.8 9.25 5.64 3.23 3.32 3.25 3.41 3.25 13.34 0 8.78-.29 10.46-2.36 13.75-1.3 2.06-4.33 5.57-6.75 7.78-2.41 2.22-6.42 5.44-8.89 7.16-2.48 1.71-7.88 4.68-12 6.59-4.13 1.91-10.65 4.62-14.5 6.03s-11.95 3.87-18 5.47-15.28 3.64-20.5 4.54c-5.23.89-15.35 2.09-22.5 2.67-9.14.74-14.63.73-18.5-.02-3.03-.58-6.09-1.6-6.81-2.27-.71-.66-1.5-1.99-1.75-2.95-.24-.96.52-3.89 1.69-6.5s5.28-11.5 9.13-19.75 9.46-20.4 12.45-27 6.12-13.57 6.95-15.5c.83-1.92 2.21-5.07 3.07-7 .87-1.92 2.84-6.87 7.23-18.5l-3.92-6c-3.54-5.42-3.76-6.11-2.23-7.1.93-.6 3.94-1.87 6.69-2.82s8.15-2.53 12-3.52 10.37-2.36 14.5-3.04c4.12-.68 7.95-1.4 8.5-1.6.55-.21 7.3-.21 15-.01M731 232.63c-3.03.85-7.75 2.36-10.5 3.34-4.51 1.61-5.13 2.21-6.37 6.16-.76 2.4-2 6.06-2.75 8.12-.76 2.06-1.04 3.74-.63 3.74.41-.01 5.02-1.3 10.25-2.86 5.22-1.57 12.2-4.14 15.5-5.71 3.3-1.58 7.35-3.83 9-5.02s3.67-3.61 4.5-5.37c1.33-2.84 1.33-3.3 0-4.1-.83-.49-2.85-.84-4.5-.76-1.65.07-4.35.31-6 .52s-5.48 1.09-8.5 1.94M727.5 273c-4.4 1.23-9.35 2.59-11 3.02s-4.35 1.24-6 1.8-4.24 1.28-5.75 1.6c-1.52.32-2.75 1.25-2.75 2.08s-1.28 4.31-2.84 7.75-3.13 7.49-3.5 9c-.36 1.51-1.79 5.11-3.17 8-1.39 2.89-2.51 5.81-2.5 6.5 0 .69.57 1.24 1.26 1.23s4.85-.67 9.25-1.47 9.8-1.93 12-2.52c2.2-.58 7.15-2.01 11-3.18 3.85-1.16 7.43-2.49 7.95-2.96s1.53-.85 2.25-.85c.71 0 4.56-1.62 8.55-3.61 3.99-1.98 9.27-5.28 11.75-7.34 2.47-2.05 5.29-5.38 6.25-7.39s1.74-5.57 1.73-7.91c0-2.34-.34-4.71-.75-5.27-.4-.56-1.97-1.57-3.48-2.25s-4.66-1.17-7-1.1-6.73.69-9.75 1.38c-3.03.69-9.1 2.26-13.5 3.49" class="s0"/><path id="Path 1" d="M127.26 20.2c-5.37 2.85-13.14 6.92-17.26 9.04-5.99 3.07-9.21 4.02-16 4.74-4.68.5-12.1 2.01-16.5 3.37-4.4 1.35-13.4 4.49-20 6.99-6.6 2.49-14.7 5.24-18 6.1s-7.35 1.57-9 1.56c-1.65 0-4.58.46-6.5 1.02-1.93.57-4.56 2.03-5.85 3.25-1.28 1.23-3.03 3.58-3.87 5.23s-1.57 5.47-1.62 8.5c-.07 4.14.51 6.56 2.37 9.78 1.46 2.53 3.8 4.88 5.72 5.75 1.79.81 3.92 1.47 4.75 1.47.82 0 5.44-1.51 10.25-3.36S47.42 79.77 51 79.15c3.57-.63 10.55-1.14 15.5-1.15l9-.01c1.6 40.06 2.14 44.64 5.54 61.01 2.9 13.92 4.24 23.7 5.43 39.5 1.19 15.77 1.32 22.81.55 28.25-.56 3.99-1.61 8.71-2.34 10.5s-2.41 4.27-3.75 5.52-3.67 2.26-5.18 2.25S70.3 223.65 67 222s-8.09-4.91-10.64-7.25-7.34-7.62-10.66-11.75c-3.31-4.12-8.53-10.12-11.61-13.33-3.07-3.2-7.28-6.69-9.34-7.75s-4.31-1.71-5-1.44c-.69.26-1.81 1.61-2.5 3-.69 1.38-1.25 5.9-1.25 10.02 0 5.15.76 9.93 2.43 15.25 1.42 4.53 4.49 10.87 7.38 15.25 2.73 4.13 8.74 11.1 13.38 15.5 5.21 4.95 10.87 9.23 14.86 11.23 3.55 1.78 9.15 3.92 12.45 4.76 3.3.83 8.14 1.52 10.75 1.52 2.61-.01 7.11-.88 10-1.95 3.43-1.27 6.72-3.52 9.5-6.5 2.34-2.51 5.37-6.81 6.75-9.56 1.37-2.75 3.4-8.71 4.49-13.25 1.18-4.88 2-11.72 2.01-16.75 0-4.68-1.78-22-3.97-38.5-2.18-16.5-5.3-38.55-6.94-49-1.63-10.45-4.17-24.62-5.64-31.5-1.47-6.87-2.84-13.06-3.06-13.75-.21-.69 1.97-3.1 4.86-5.37 2.89-2.26 7.5-5.25 10.25-6.63 2.75-1.39 11.3-4.96 19-7.94 7.7-2.99 16.03-6.62 18.5-8.08 2.47-1.45 6.24-4.24 8.37-6.19s4.89-5.56 6.13-8.04c1.24-2.47 2.55-5.85 2.92-7.5.56-2.52.22-3.32-2.13-5.05-1.53-1.13-5.15-3.04-8.04-4.25s-7.04-2.2-9.24-2.2c-2.88 0-6.68 1.44-13.75 5.2" style="fill:#e91d27"/><path id="Path 2" d="M624 225.74c-2.48.18-8.77.95-14 1.71s-12.09 2.32-15.25 3.46c-3.16 1.15-6.17 2.88-6.69 3.84q-.95 1.75.31 4.25c.69 1.37 2.88 4.3 4.86 6.5l3.61 4c6.32-2.71 11.2-3.79 14.91-4.14s8.89-.35 11.5 0c4.47.6 4.75.82 4.75 3.64 0 2.31-.86 3.63-3.75 5.75-2.07 1.51-4.66 3.32-5.75 4.01-1.1.7-3.24 1.71-4.75 2.25-1.51.55-2.75 1.44-2.75 1.99s-.45 1-1 1-4.4 2.36-8.55 5.25c-4.16 2.89-8.32 5.7-9.25 6.25-.94.55-4.51 2.92-7.95 5.25-3.44 2.34-6.7 4.25-7.25 4.25s-1 .45-1 1-1.24 1.44-2.75 1.99c-1.51.54-3.54 1.44-4.5 2-.96.55-2.54 1.46-3.5 2.02-.96.55-2.42 1.27-3.25 1.59-.83.33-2.97 1.34-4.76 2.25s-3.27 2.1-3.28 2.65 4.04 4.82 9.01 9.5c4.96 4.68 10.94 9.51 13.28 10.75 2.77 1.47 5.99 2.26 9.25 2.26 2.75 0 8.83-.72 13.5-1.6 4.67-.87 10.98-2.19 14-2.91 3.02-.73 8.88-2.07 13-2.98 4.13-.92 10.2-2.28 13.5-3.02 3.3-.75 8.7-1.9 12-2.55s7.58-1.8 9.5-2.54c2.45-.95 4.1-2.57 5.5-5.4 1.63-3.3 1.76-4.27.7-5.28-.94-.9-6.1-1.17-19-1.03-9.79.12-22.84.94-29.2 1.84-6.33.89-13.98 2.23-17 2.96-4.22 1.02-5.92 1.06-7.3.16-1.63-1.05-1.37-1.47 2.75-4.41 2.5-1.79 5-3.25 5.55-3.25s1-.45 1-1 1.01-1.29 2.25-1.65 3.38-1.43 4.75-2.38c1.38-.96 6.55-4.34 11.5-7.52s11.7-7.85 14.99-10.37c3.3-2.52 7.39-5.93 9.1-7.58s4.53-5.25 6.27-8c1.9-3 3.16-6.3 3.15-8.25 0-1.79-.46-4.38-1.01-5.75-.55-1.38-2.46-4.1-4.25-6.05-2.21-2.43-4.84-3.99-8.25-4.9-2.75-.73-7.02-1.51-9.5-1.74-2.48-.22-6.52-.26-9-.07" class="s2"/><path id="Path 3" d="M169.52 14.25c-1.37 1.96-1.5 5.33-.98 25.75.33 12.93 1.04 26.88 1.59 31 .54 4.13 1.19 8.29 1.43 9.25S172.9 82 174 82c1.38 0 2.6-1.31 3.94-4.25 1.07-2.34 2.65-8.3 3.51-13.25.96-5.51 1.56-14.81 1.55-24 0-8.25-.46-16.69-1.01-18.75-.54-2.06-2.12-5.1-3.49-6.75-1.53-1.84-3.45-3-4.95-3-1.41 0-3.12.96-4.03 2.25m297.98 5.89c-2.2.51-7.6 2.68-12 4.82-4.4 2.15-13.4 7.46-20 11.81-6.6 4.36-13.24 9.12-14.75 10.58s-3.71 4.79-4.89 7.4c-2.06 4.55-2.11 5.49-1.26 22.25.49 9.63.89 21.55.9 26.5 0 4.95-.29 18-.65 29s-.25 22.7.24 26 1.59 7.35 2.45 9 2.78 3.87 4.26 4.94c1.49 1.06 4.27 1.96 6.2 2l3.5.06c.96-24.03 1.29-34.71 1.37-39.25.13-8.24.13-8.25 3.38-9.95 2.52-1.33 5.51-1.67 13.25-1.53 5.5.1 12.81-.04 16.25-.3 5.29-.4 6.81-.97 9.88-3.72 1.99-1.79 4.24-4.49 5-6 .75-1.51 1.15-3.99.88-5.5-.28-1.51-1.74-3.96-3.25-5.44-1.58-1.55-4.79-3.15-7.51-3.75q-4.75-1.06-12-.12c-3.99.52-10.63 1.68-14.75 2.59-4.13.91-8.4 1.88-9.5 2.15-1.8.44-2.13-.3-3.28-7.34-.71-4.31-1.54-10.99-1.86-14.84-.57-6.87-.51-7.09 3.03-11.75 1.99-2.61 6.42-6.81 9.86-9.32 3.44-2.52 9.06-5.89 12.5-7.5s10.19-3.93 15-5.15c5.55-1.41 9.82-3.15 11.67-4.75 1.61-1.39 3.74-4.33 4.73-6.53s1.83-5.58 1.85-7.5c.04-2.38-.68-4.2-2.22-5.68-1.26-1.2-3.52-2.67-5.03-3.25-1.51-.59-4.21-1.02-6-.97-1.79.06-5.05.52-7.25 1.04m384 10.21c-3.85 1.84-12.4 6.95-19 11.36-7.85 5.23-14.17 10.39-18.27 14.9-4.38 4.81-7.93 10.21-11.76 17.89-3.02 6.05-6.16 13.7-6.98 17-.83 3.3-1.95 9.6-2.5 14-.54 4.4-.98 12.5-.97 18s.46 13.15 1 17c.61 4.3 2.31 9.7 4.41 14 1.88 3.85 5.71 10.49 8.5 14.75s6.53 8.63 8.32 9.71c2.69 1.63 4.37 1.86 9.75 1.37 3.58-.33 9.87-1.65 14-2.94 4.12-1.29 10.39-4.04 13.92-6.11 3.53-2.08 9.64-6.93 13.58-10.78s8.54-9.03 10.23-11.5c1.68-2.47 4.87-8.1 7.08-12.5s4.97-11.38 6.14-15.5c1.17-4.13 2.78-11.78 3.58-17s1.46-12.2 1.45-15.5c0-3.3-.69-10.72-1.53-16.5-.85-5.78-2.42-13.76-3.49-17.75-1.08-3.99-3.26-9.84-4.84-13s-4.96-7.66-7.5-10c-4.48-4.12-4.82-4.25-11.37-4.26-5.61 0-7.93.56-13.75 3.36m-294 .98c-3.3 1.23-8.7 3.88-12 5.9s-10.95 7.41-17 11.98c-6.48 4.9-12.25 10.15-14.05 12.8-1.68 2.47-4.69 9.44-6.7 15.49s-4.31 14.37-5.12 18.5c-.8 4.12-2.01 11.55-2.68 16.5-.68 5.1-.99 13.99-.71 20.5.33 7.57 1.3 14.41 2.83 20 1.52 5.55 3.73 10.58 6.38 14.5 2.85 4.22 5.68 6.96 9.55 9.24 3.22 1.9 7.57 3.49 10.5 3.85 2.75.34 7.47.11 10.5-.51 3.02-.61 7.97-2.27 11-3.68 3.02-1.41 8.2-4.49 11.5-6.84 3.3-2.36 8.47-6.94 11.5-10.18 3.02-3.24 7.62-9.27 10.22-13.39 2.59-4.12 6.33-11.31 8.31-15.99s4.46-11.88 5.53-16c1.07-4.13 2.46-12.22 3.09-18 .9-8.17.88-12.61-.1-20-.69-5.22-2.05-12.65-3.03-16.5-.97-3.85-3.04-9.7-4.6-13s-4.43-7.76-6.38-9.91c-1.95-2.14-5.34-4.72-7.54-5.72-2.36-1.08-6.25-1.81-9.5-1.8-3.15.02-8.06.98-11.5 2.26m220.5-.81c-3.03.75-12.92 1.62-22 1.94s-20.55 1.04-25.5 1.61-12.6 1.74-17 2.6c-4.4.85-10.81 2.41-14.25 3.44-3.92 1.19-6.81 2.73-7.76 4.14-.83 1.24-1.52 4.5-1.53 7.25-.02 3.71.56 5.75 2.26 7.93 1.25 1.61 3.74 3.52 5.53 4.25 1.88.76 7.15 1.32 12.5 1.33 5.09 0 10.94.45 13 1 2.06.54 4.49 1.78 5.4 2.74 1.44 1.52 1.57 3.47 1.03 14.75-.35 7.15-1.99 22-3.65 33s-3.31 24.95-3.66 31c-.52 8.69-.31 12.21.99 16.75 1.11 3.91 2.6 6.55 4.64 8.25 1.65 1.37 3.67 2.5 4.5 2.5s1.98-1.24 2.57-2.75 2.17-7.25 3.5-12.75c1.34-5.5 3.1-14.95 3.93-21 .82-6.05 2.17-19.78 3-30.5.82-10.72 1.51-24.45 1.52-30.5 0-6.05.34-11.5.75-12.1.4-.61 1.74-1.62 2.98-2.25s7.31-2.31 13.5-3.72 13.27-3.46 15.75-4.55c2.47-1.09 5.78-3.2 7.34-4.68 1.57-1.49 3.87-4.73 5.11-7.2 1.25-2.48 2.56-5.85 2.93-7.5.49-2.19.19-3.48-1.1-4.78-1.23-1.23-3.17-1.75-6.28-1.67-2.48.07-6.98.73-10 1.47m139.23 10.73c-.54.69-1.89 3.05-3 5.25-1.1 2.2-2.97 7.15-4.14 11s-2.8 12.51-3.61 19.25-1.48 16.64-1.49 22c0 5.36.49 13.57 1.09 18.25.6 4.67 1.98 12.1 3.06 16.5s4.19 12.61 6.91 18.25c3.81 7.9 6.39 11.7 11.2 16.55 3.44 3.47 7.83 7.05 9.75 7.96s5.75 2.09 8.5 2.62c3.18.61 6.82.62 10 .02 2.75-.53 7.02-1.92 9.5-3.11 2.48-1.18 7.9-5.56 12.06-9.72s9.75-11.17 12.41-15.57c2.67-4.4 8.3-14.75 12.51-23s9.41-20.18 11.56-26.5c3.68-10.82 3.91-12.21 3.93-23.5.02-9.68-.4-13.4-2.22-19.25-1.46-4.7-3.39-8.47-5.5-10.71-2.38-2.54-4.12-3.47-6.5-3.5-1.79-.02-3.99.3-4.89.71s-2.25 1.99-3 3.5-1.36 5-1.36 7.75c0 3.24 1.13 7.91 3.2 13.25 2.87 7.41 3.19 9.32 3.19 18.75-.01 8.87-.43 11.67-2.71 18-1.48 4.12-4.6 10.87-6.94 15-2.68 4.74-7.37 10.65-12.74 16.07-6.78 6.84-10.22 9.42-17 12.78-7.12 3.53-9.47 4.21-14.5 4.22-5.11 0-6.74-.48-11-3.28-4.32-2.84-5.65-4.59-9.73-12.79-2.61-5.22-5.42-12.54-6.25-16.25-.84-3.71-1.52-9.11-1.53-12 0-2.89.92-10.43 2.05-16.75 1.13-6.33 2.93-15.89 4-21.25 1.08-5.36 1.96-12.68 1.96-16.25 0-3.58-.51-7.51-1.12-8.75-.62-1.24-2.09-3.27-3.25-4.53-1.17-1.25-2.42-2.26-2.77-2.25-.35.02-1.08.59-1.63 1.28m-547.25 9.5c-6.06 6.61-6.18 6.85-5.62 11.25.32 2.47 1.04 6.19 1.61 8.25.56 2.06 2.12 4.99 3.44 6.5l2.42 2.75c5.17-3.64 6.98-4.32 7.37-3.85.38.47 1.4 3.55 2.25 6.85.86 3.3 1.56 7.57 1.56 9.5 0 1.92-.47 6.2-1.05 9.5s-2.45 10.05-4.16 15c-1.7 4.95-4.34 11.47-5.86 14.5-1.51 3.03-4.14 7.41-5.85 9.75-1.7 2.34-4.55 4.97-6.34 5.85-1.79.87-4.26 1.32-5.5 1-1.24-.33-4.09-2.29-6.34-4.35-2.81-2.58-5.75-7.18-9.42-14.75-2.94-6.05-9.65-23.71-14.91-39.25-5.27-15.54-10.75-30.61-12.19-33.5s-3.57-6.27-4.75-7.53c-1.18-1.25-2.59-2.27-3.14-2.27s-1.96 1.7-3.13 3.78c-1.16 2.07-3.06 6.69-4.2 10.27-1.14 3.57-2.75 9.2-3.58 12.5s-2.9 13.65-4.6 23c-1.75 9.58-5.02 22.89-7.49 30.5-2.42 7.43-5.59 18.45-7.05 24.5-2.05 8.52-2.57 12.86-2.3 19.22.28 6.55.76 8.65 2.35 10.31 1.17 1.21 3.88 2.33 6.5 2.68 3.75.5 4.69.29 5.66-1.3.64-1.05 2.3-6.41 3.69-11.91 1.4-5.5 4.15-17.43 6.12-26.5s4.73-21.9 6.12-28.5 2.72-13.01 2.97-14.25c.24-1.24.78-2.26 1.19-2.26.41-.01 3.83 8.2 7.59 18.25 3.77 10.04 8.78 22.31 11.15 27.26s6.38 11.81 8.91 15.25c2.57 3.5 6.47 7.34 8.85 8.73 2.68 1.56 5.82 2.48 8.5 2.5 2.34.01 6.61-.88 9.5-1.97 2.89-1.1 7.47-3.69 10.19-5.75 2.71-2.07 7.08-6.91 9.7-10.76 2.63-3.85 6.19-10.6 7.93-15 1.73-4.4 4.01-11.38 5.05-15.5 1.04-4.13 2.4-11.33 3.02-16 .62-4.68.85-12.33.52-17-.34-4.68-1.53-12.1-2.65-16.5s-3.17-10.25-4.55-13c-1.39-2.75-4.3-7.14-6.49-9.75-2.18-2.61-4.61-4.75-5.39-4.75-.77 0-4.2 3.04-7.6 6.75" class="s0"/><path id="Path 4" d="M237.5 22.62c-2.2.81-7.15 3.09-11 5.06s-8.8 4.11-11 4.76l-4 1.18c0 9.92.53 12.68 1.5 13.84 1.27 1.52 2.76 1.73 9.75 1.41l8.24-.37c0 10.08-.91 20.65-2.01 30-1.11 9.35-2.67 21.28-3.47 26.5s-2.2 15.13-3.1 22c-.91 6.88-2.16 19.47-2.78 28l-1.13 15.5c-12.4 2.67-16.36 3.8-16.8 4.22-.44.43-.36 3.25.18 6.28.53 3.03 1.45 6.74 2.04 8.25.6 1.51 1.3 2.75 1.58 2.75s2.86-1.28 5.75-2.84 9.75-3.85 15.25-5.09c5.5-1.23 13.04-3.1 16.75-4.16 3.71-1.05 7.65-2.81 8.75-3.91 1.67-1.67 1.83-2.5 1-5-.55-1.65-1.9-3.45-3-4s-3.69-.99-5.75-.99c-2.06.01-5.19.57-6.96 1.25-1.76.68-3.46 1.02-3.77.74-.32-.28.77-10.85 2.42-23.5 1.64-12.65 3.96-31.33 5.15-41.5 1.5-12.83 2.2-25.02 2.29-39.79l.12-21.29c3.88-.82 7.03-1.79 9.5-2.69s5.79-2.78 7.36-4.18c2.34-2.08 2.75-3.1 2.27-5.55-.32-1.65-1.83-4.25-3.36-5.79-2.57-2.58-3.32-2.78-10.27-2.68-4.13.06-9.3.77-11.5 1.59M560 52.61c-3.02.82-8.42 3.11-12 5.09-4.02 2.22-9.75 6.89-15 12.21-4.67 4.74-10.2 11.53-12.28 15.1-2.07 3.57-4.98 10.09-6.46 14.49-2.42 7.21-2.69 9.43-2.7 22.5 0 13.04.24 15.11 2.42 20.5 1.33 3.3 3.79 7.52 5.47 9.38 1.68 1.85 4.29 3.99 5.8 4.75 1.51.75 4.44 1.38 6.5 1.4 2.29.01 6.48-1.32 10.75-3.41 4.59-2.25 9.89-6.13 15.37-11.27 4.65-4.36 10.74-11.41 13.69-15.85 2.92-4.4 7.11-11.83 9.3-16.5s4.68-11.2 5.54-14.5 1.58-9.15 1.6-13c.02-3.93-.65-8.97-1.54-11.5-.87-2.47-3.92-7.6-6.77-11.4-2.86-3.79-6.09-7.51-7.19-8.26-1.1-.74-3.13-1.32-4.5-1.28-1.38.04-4.98.74-8 1.55m296.39-.88c-1.15.26-4.53 1.37-7.5 2.47-2.96 1.11-7.87 3.61-10.89 5.57s-7.69 5.63-10.38 8.15c-2.68 2.52-6.81 7.28-9.18 10.58s-5.64 8.92-7.27 12.5c-1.64 3.57-3.73 9.42-4.64 13-.92 3.57-1.93 9.87-2.24 14-.31 4.12-.04 10.65.61 14.5.64 3.85 2.5 9.81 4.13 13.25 1.87 3.93 4.33 7.27 6.64 9 2.89 2.16 4.77 2.75 8.77 2.75 3.69 0 6.9-.88 11.58-3.15 3.94-1.92 9.62-6.07 14.48-10.6 4.4-4.1 10.32-10.78 13.16-14.85s6.96-11 9.17-15.4c2.2-4.4 5.02-11.38 6.26-15.5 1.28-4.23 2.3-10.33 2.34-14 .04-3.58-.52-8.53-1.24-11-.71-2.47-3.78-7.88-6.8-12-3.03-4.13-6.71-8.04-8.2-8.7-1.48-.67-3.59-1.17-4.69-1.12s-2.95.3-4.11.55" class="s2"/></g></svg>